# xmcd CD database file
#
# Track frame offsets:
#	150
#	12516
#	22764
#	36512
#	47151
#	60220
#	71889
#	80695
#	92516
#	107637
#	119848
#	132434
#	143421
#	157401
#	170060
#	180981
#	192546
#	206642
#	218506
#	229070
#
# Disc length: 3207 seconds
#
# Revision: 0
# Processed by: cddbd v1.5.2PL0 Copyright (c) Steve Scherf et al.
# Submitted via: CDex 1.70beta2
#
DISCID=210c8514
DTITLE=Various Artist - Great Country
DYEAR=1900
DGENRE=Country
TTITLE0=Ruben James - Kenny Rogers
TTITLE1=I Believe - Frankie Laine
TTITLE2=Wasted Days And Wasted Nights - Freddy Fender
TTITLE3=Burning Memories - Waylon Jennings
TTITLE4=Daddy - Donna Fargo
TTITLE5=Your Tender Years - George Jones
TTITLE6=Come On In - Pasty Cline
TTITLE7=Take These Chains From My Heart - Ray Drusky
TTITLE8=Slippin' Away - Barbara Fairchild
TTITLE9=Ol' Blue - Stonewall Jackson
TTITLE10=High Noon - Frankie Laine
TTITLE11=Singing The Blues - Guy Mitchell
TTITLE12=Wedding Bells - George Jones
TTITLE13=Four In The Morning - Faron Young
TTITLE14=Honky Tonk Angels - Dolly Parton
TTITLE15=Heataches By The Number - Guy Mitchell
TTITLE16=Sunshine - Kenny Rogers
TTITLE17=Crying - Waylon Jennings
TTITLE18=Honky Tonk Merry-Go-Round - Pasty Cline
TTITLE19=Mule Train - Frankie Laine
EXTD=
EXTT0=
EXTT1=
EXTT2=
EXTT3=
EXTT4=
EXTT5=
EXTT6=
EXTT7=
EXTT8=
EXTT9=
EXTT10=
EXTT11=
EXTT12=
EXTT13=
EXTT14=
EXTT15=
EXTT16=
EXTT17=
EXTT18=
EXTT19=
PLAYORDER=
